<svg viewBox="0 0 400 450" xmlns="http://www.w3.org/2000/svg">
  <ellipse cx="200" cy="360" rx="160" ry="45" fill="#F8BBD0" />
  <ellipse cx="200" cy="355" rx="160" ry="45" fill="#FCE4EC" />

  <path d="M 60 300 A 140 40 0 0 0 340 300 L 340 360 A 140 40 0 0 1 60 360 Z" fill="#4E2626" />
  <ellipse cx="200" cy="300" rx="140" ry="40" fill="#6D3A3A" />
  <path d="M 65 325 Q 100 305 135 325 T 200 325 T 265 325 T 335 325" fill="none" stroke="white" stroke-width="4" stroke-linecap="round" opacity="0.8" />
  <circle cx="100" cy="350" r="3" fill="white" />
  <circle cx="200" cy="365" r="5" fill="white" />
  <circle cx="300" cy="350" r="3" fill="white" />

  <path d="M 100 200 A 100 30 0 0 0 300 200 L 300 300 A 100 30 0 0 1 100 300 Z" fill="#FFCCBC" />
  <ellipse cx="200" cy="200" rx="100" ry="30" fill="#FFE0B2" />
  <path d="M 100 240 A 100 30 0 0 0 300 240" fill="none" stroke="white" stroke-width="3" opacity="0.6" />
  <path d="M 100 270 A 100 30 0 0 0 300 270" fill="none" stroke="white" stroke-width="3" opacity="0.6" />

  <path d="M 100 200 A 100 30 0 0 0 300 200 L 300 230 
           Q 280 270 250 230 T 200 280 T 150 240 T 100 230 Z" fill="#448AFF" />
  <ellipse cx="200" cy="200" rx="100" ry="30" fill="#64B5F6" />

  <g id="top-cherry-single">
    <circle cx="0" cy="0" r="8" fill="#D32F2F" />
    <circle cx="0" cy="-5" r="3" fill="white" opacity="0.7" />
    <path d="M 0 0 L 0 -15" stroke="#4CAF50" stroke-width="2" />
  </g>
  <use href="#top-cherry-single" x="190" y="190" />
  <use href="#top-cherry-single" x="220" y="195" />

  <defs>
    <g id="cream-swirl-cherry">
      <circle cx="0" cy="0" r="15" fill="white" />
      <circle cx="0" cy="0" r="12" fill="#D32F2F" />
      <path d="M 0 0 L 0 -15" stroke="#4CAF50" stroke-width="2" />
    </g>
  </defs>

  <use href="#cream-swirl-cherry" x="120" y="280" />
  <use href="#cream-swirl-cherry" x="170" y="285" />
  <use href="#cream-swirl-cherry" x="230" y="285" />
  <use href="#cream-swirl-cherry" x="280" y="280" />
  <use href="#cream-swirl-cherry" x="90" y="295" />
  <use href="#cream-swirl-cherry" x="310" y="295" />
  
  <g id="top-cream-swirl">
    <circle cx="0" cy="0" r="10" fill="white" />
  </g>
  <use href="#top-cream-swirl" x="140" y="180" />
  <use href="#top-cream-swirl" x="170" y="175" />
  <use href="#top-cream-swirl" x="200" y="170" />
  <use href="#top-cream-swirl" x="230" y="175" />
  <use href="#top-cream-swirl" x="260" y="180" />


</svg>